<?xml version="1.0" encoding="utf-8"?>
<svg version="1.1" id="Layer_1" x="0px" y="0px" viewBox="0 0 16 16" style="enable-background:new 0 0 511.999 511.999;" xmlns="http://www.w3.org/2000/svg">
  <g transform="matrix(0.031121, 0, 0, 0.031121, 0, 0.033039)">
    <path style="fill:#FFEB99;" d="M 255.999 430.135 C 191.15 430.135 138.391 377.376 138.391 312.527 L 138.391 155.485 C 138.391 146.233 130.864 138.707 121.612 138.707 L 84.615 138.707 C 75.536 138.707 68.177 131.347 68.177 122.269 C 68.177 113.191 75.537 105.831 84.615 105.831 L 121.613 105.831 C 148.993 105.831 171.269 128.107 171.269 155.487 L 171.269 312.529 C 171.269 359.25 209.279 397.259 255.999 397.259 C 302.719 397.259 340.729 359.249 340.729 312.529 L 340.729 155.485 C 340.729 128.105 363.005 105.829 390.385 105.829 L 427.383 105.829 C 436.462 105.829 443.821 113.189 443.821 122.267 C 443.821 131.345 436.461 138.705 427.383 138.705 L 390.385 138.705 C 381.133 138.705 373.606 146.232 373.606 155.483 L 373.606 312.525 C 373.608 377.375 320.849 430.135 255.999 430.135 Z"/>
    <path style="fill:#FFDE55;" d="M 427.385 105.829 L 390.387 105.829 C 363.007 105.829 340.731 128.105 340.731 155.485 L 340.731 312.527 C 340.731 359.248 302.721 397.257 256.001 397.257 C 255.773 397.257 255.548 397.241 255.32 397.24 L 255.32 430.125 C 255.547 430.126 255.774 430.134 256.001 430.134 C 320.85 430.134 373.609 377.375 373.609 312.526 L 373.609 155.484 C 373.609 146.232 381.136 138.706 390.388 138.706 L 427.386 138.706 C 436.465 138.706 443.824 131.346 443.824 122.268 C 443.824 113.19 436.464 105.829 427.385 105.829 Z"/>
    <path style="fill:#91CC04;" d="M 114.159 81.864 L 40.402 81.864 C 18.124 81.864 0 99.989 0 122.267 C 0 144.545 18.124 162.669 40.402 162.669 L 114.159 162.669 C 123.238 162.669 130.597 155.309 130.597 146.231 L 130.597 98.304 C 130.598 89.225 123.237 81.864 114.159 81.864 Z"/>
    <path style="fill:#79AB03;" d="M 471.597 81.864 L 397.84 81.864 C 388.761 81.864 381.402 89.224 381.402 98.302 L 381.402 146.23 C 381.402 155.309 388.762 162.668 397.84 162.668 L 471.597 162.668 C 493.875 162.668 511.999 144.544 511.999 122.266 C 511.999 99.988 493.875 81.864 471.597 81.864 Z"/>
    <g/>
    <g/>
    <g/>
    <g/>
    <g/>
    <g/>
    <g/>
    <g/>
    <g/>
    <g/>
    <g/>
    <g/>
    <g/>
    <g/>
    <g/>
  </g>
</svg>